<?xml version="1.0" encoding="utf-8"?>
<!-- Generator: Adobe Illustrator 26.5.0, SVG Export Plug-In . SVG Version: 6.00 Build 0)  -->
<svg version="1.1" id="Capa_1" xmlns="http://www.w3.org/2000/svg" xmlns:xlink="http://www.w3.org/1999/xlink" x="0px" y="0px"
	 viewBox="0 0 169.5 192.6" style="enable-background:new 0 0 169.5 192.6;" xml:space="preserve">
<style type="text/css">
	.st0{fill:#FEA116;}
	.st1{fill:#FFFFFF;}
</style>
<path class="st0" d="M84.8,192.6c-17.8,0-35.7,0.1-53.5,0c-9.7,0-16-5.4-18.7-14.9c-0.6-2.1-2.9-4.5-5-5.4
	c-5.7-2.5-7.9-6.5-7.6-12.6c0.3-6.6,0.2-13.3,0-20c-0.2-5.3,1.8-8.8,6.7-11c2.1-1,5-3.6,4.8-5.2c-0.2-2.1-2.8-4.6-5-5.7
	c-4.7-2.3-6.7-5.5-6.6-10.6c0.2-7.3,0.2-14.7,0-22C0,80.3,1.9,77.2,6.4,74.9c2.2-1.1,5.1-3.6,5.2-5.5c0.1-1.8-2.8-4.5-5-5.6
	C2,61.5-0.1,58.3,0.1,53.2c0.2-7.2,0.2-14.3,0-21.5C0,26.6,1.6,22.9,6.5,21c3.7-1.5,6-3.8,6.9-8.2C15,5.3,22.2,0.1,30,0.1
	c36.5-0.1,73-0.1,109.5,0c8.2,0,14.8,5,16.8,13.1c1,4,2.9,6.5,6.6,7.8c4.9,1.8,6.7,5.3,6.4,10.5c-0.3,7.2-0.3,14.3,0,21.5
	c0.2,5.2-1.5,8.7-6.4,10.5c-0.9,0.3-1.8,0.9-2.7,1.4c-4.2,2.5-4.4,6.8,0.1,8.6c7.6,2.9,9.6,8.1,9,15.6c-0.5,6.1-0.3,12.3,0,18.5
	c0.2,4.8-1.6,8-6.1,9.8c-1.1,0.4-2.1,1-3.1,1.6c-4,2.4-4.3,6.8-0.1,8.3c8.4,3,10,9,9.3,16.9c-0.5,5.6-0.3,11.3,0,17
	c0.3,5-1.4,8.4-6.1,10.2c-3.9,1.4-5.9,4-7,8.2c-2.1,8.2-8.8,12.9-17.4,13C120.8,192.6,102.8,192.6,84.8,192.6L84.8,192.6z
	 M31.2,96.1c0,22.8,0,45.7,0,68.5c0,7.9,1.5,9.4,9.3,9.4c29.5,0,59,0,88.5,0c7.6,0,9.1-1.4,9.1-9c0-45.8,0-91.6,0-137.4
	c0-7.4-1.5-8.9-8.7-8.9c-29.7,0-59.3,0-89,0c-7.5,0-9.1,1.6-9.1,9C31.2,50.5,31.3,73.3,31.2,96.1L31.2,96.1z"/>
<path class="st1" d="M31.2,96.1c0-22.8,0-45.7,0-68.5c0-7.4,1.6-9,9.1-9c29.7,0,59.3,0,89,0c7.2,0,8.7,1.5,8.7,8.9
	c0,45.8,0,91.6,0,137.4c0,7.6-1.4,9-9.1,9c-29.5,0-59,0-88.5,0c-7.8,0-9.3-1.5-9.3-9.4C31.2,141.8,31.2,118.9,31.2,96.1L31.2,96.1z"
	/>
</svg>
